<svg xmlns="http://www.w3.org/2000/svg" viewBox="0 -0.5 12 16" shape-rendering="crispEdges">
<metadata>Made with Pixels to Svg https://codepen.io/shshaw/pen/XbxvNj</metadata>
<path stroke="rgba(38,38,38,0.2627450980392157)" d="M2 0h1M9 0h1M1 1h1M10 1h1M0 2h1M11 2h1M4 5h1M7 5h1M4 6h1M7 6h1M4 7h1M7 7h1M4 8h1M7 8h1M4 9h1M7 9h1M4 10h1M7 10h1M0 13h1M11 13h1M1 14h1M10 14h1M2 15h1M9 15h1" />
<path stroke="#252525" d="M3 0h6M0 4h1M11 4h1M0 5h1M3 5h1M8 5h1M11 5h1M0 6h1M3 6h1M8 6h1M11 6h1M0 7h1M3 7h1M8 7h1M11 7h1M0 8h1M3 8h1M8 8h1M11 8h1M0 9h1M3 9h1M8 9h1M11 9h1M0 10h1M3 10h1M8 10h1M11 10h1M0 11h1M11 11h1M3 15h6" />
<path stroke="#3a3835" d="M2 1h1M9 1h1M1 2h1M10 2h1M1 13h1M10 13h1M2 14h1M9 14h1" />
<path stroke="#514c46" d="M3 1h6M2 2h8M1 3h3M8 3h3M1 4h2M9 4h2M1 5h2M9 5h2M1 6h2M9 6h2M1 7h2M9 7h2M1 8h2M9 8h2M1 9h2M9 9h2M1 10h2M9 10h2M1 11h2M9 11h2M1 12h3M8 12h3M2 13h8M3 14h6" />
<path stroke="rgba(37,37,37,0.7568627450980392)" d="M0 3h1M11 3h1M0 12h1M11 12h1" />
<path stroke="#2e2e2d" d="M4 3h3M5 12h3" />
<path stroke="#2c2c2b" d="M7 3h1M4 12h1" />
<path stroke="#48443f" d="M3 4h1M8 4h1M3 11h1M8 11h1" />
<path stroke="rgba(37,37,37,0.5098039215686274)" d="M4 4h1M7 4h1M4 11h1M7 11h1" />
</svg>