<svg xmlns="http://www.w3.org/2000/svg" viewBox="0 -0.5 12 16" shape-rendering="crispEdges">
<metadata>Made with Pixels to Svg https://codepen.io/shshaw/pen/XbxvNj</metadata>
<path stroke="rgba(37,37,37,0.5098039215686274)" d="M3 0h1" />
<path stroke="#252525" d="M4 0h4M2 1h1M7 1h1M0 2h1M7 2h1M0 3h1M7 3h1M0 4h4M7 4h1M3 5h1M7 5h1M3 6h1M7 6h1M3 7h1M7 7h1M3 8h1M7 8h1M3 9h1M7 9h1M3 10h1M7 10h1M3 11h1M7 11h1M3 12h1M7 12h1M3 13h1M7 13h1M3 14h1M7 14h1M3 15h5" />
<path stroke="rgba(38,38,38,0.2627450980392157)" d="M1 1h1" />
<path stroke="#433f3b" d="M3 1h1M1 2h1" />
<path stroke="#504b45" d="M4 1h3M2 2h5M1 3h6M4 4h3M4 5h3M4 6h3M4 7h3M4 8h3M4 9h3M4 10h3M4 11h3M4 12h3M4 13h3M4 14h3" />
</svg>