<svg xmlns="http://www.w3.org/2000/svg" viewBox="0 -0.5 12 16" shape-rendering="crispEdges">
<metadata>Made with Pixels to Svg https://codepen.io/shshaw/pen/XbxvNj</metadata>
<path stroke="rgba(37,37,37,0.592156862745098)" d="M2 0h1M9 0h1M0 2h1M11 2h1M6 6h1M5 7h1M11 7h1M10 8h1" />
<path stroke="#272727" d="M3 0h5" />
<path stroke="#252525" d="M8 0h1M0 3h1M5 3h2M11 3h1M0 4h1M7 4h1M11 4h1M0 5h4M7 5h1M11 5h1M9 9h1M8 10h1M7 11h1M5 12h7M0 13h1M11 13h1M0 14h1M11 14h1M0 15h12" />
<path stroke="rgba(37,37,37,0.8156862745098039)" d="M1 1h1M10 1h1" />
<path stroke="#433f3b" d="M2 1h1M9 1h1M1 2h1M10 2h1M4 9h1" />
<path stroke="#504b45" d="M3 1h6M2 2h8M1 3h4M7 3h4M1 4h2M8 4h3M8 5h3M8 6h3M7 7h3M6 8h3M5 9h3M4 10h3M3 11h3M2 12h3M1 13h10M1 14h10" />
<path stroke="#4f4a44" d="M3 4h1" />
<path stroke="#292929" d="M4 4h1" />
<path stroke="#3d3a37" d="M7 6h1M6 7h1M5 8h1M3 10h1M2 11h1M1 12h1" />
<path stroke="#282828" d="M11 6h1" />
<path stroke="#44403c" d="M10 7h1M9 8h1M8 9h1M7 10h1M6 11h1" />
<path stroke="rgba(38,38,38,0.37254901960784315)" d="M4 8h1M3 9h1M2 10h1" />
<path stroke="rgba(38,38,38,0.2627450980392157)" d="M1 11h1M0 12h1" />
</svg>