<svg xmlns="http://www.w3.org/2000/svg" viewBox="0 -0.5 12 16" shape-rendering="crispEdges">
<metadata>Made with Pixels to Svg https://codepen.io/shshaw/pen/XbxvNj</metadata>
<path stroke="rgba(38,38,38,0.2627450980392157)" d="M1 0h1M9 0h1M0 1h1M10 1h1M11 2h1M1 5h1M3 5h1M1 10h1M3 10h1M11 13h1M0 14h1M10 14h1M1 15h1M9 15h1" />
<path stroke="#252525" d="M2 0h7M1 1h1M0 2h1M0 3h1M4 3h3M11 3h1M3 4h1M7 4h1M11 4h1M2 5h1M7 5h1M11 5h1M4 6h3M10 6h1M4 7h1M9 7h1M4 8h1M10 8h1M4 9h3M11 9h1M2 10h1M7 10h1M11 10h1M3 11h1M7 11h1M11 11h1M0 12h1M4 12h3M11 12h1M0 13h1M1 14h1M2 15h7" />
<path stroke="#504b45" d="M2 1h7M1 2h9M1 3h3M7 3h4M2 4h1M8 4h3M8 5h3M7 6h3M5 7h4M5 8h5M7 9h4M8 10h3M2 11h1M8 11h3M1 12h3M7 12h4M1 13h9M2 14h7" />
<path stroke="#2c2b2b" d="M9 1h1" />
<path stroke="#292929" d="M10 2h1" />
<path stroke="rgba(37,37,37,0.5098039215686274)" d="M0 4h1M0 11h1" />
<path stroke="#3a3939" d="M1 4h1M1 11h1M10 13h1" />
<path stroke="#343434" d="M9 14h1" />
</svg>