<svg xmlns="http://www.w3.org/2000/svg" viewBox="0 -0.5 12 16" shape-rendering="crispEdges">
<metadata>Made with Pixels to Svg https://codepen.io/shshaw/pen/XbxvNj</metadata>
<path stroke="#282827" d="M6 0h1" />
<path stroke="#252525" d="M7 0h4M5 1h1M10 1h1M4 2h1M10 2h1M10 3h1M3 4h1M6 4h1M10 4h1M6 5h1M10 5h1M6 6h1M10 6h1M1 7h1M4 7h1M6 7h1M10 7h1M0 8h1M6 8h1M10 8h1M0 9h1M3 9h4M10 9h2M0 10h1M11 10h1M0 11h1M11 11h1M0 12h7M10 12h2M6 13h1M10 13h1M6 14h1M10 14h1M6 15h5" />
<path stroke="#3d3a37" d="M6 1h1M4 3h1M2 6h1M4 6h1M3 8h1" />
<path stroke="#504b45" d="M7 1h3M5 2h5M5 3h5M4 4h2M7 4h3M3 5h2M7 5h3M3 6h1M7 6h3M2 7h2M7 7h3M2 8h1M7 8h3M1 9h2M7 9h3M1 10h10M1 11h10M7 12h3M7 13h3M7 14h3" />
<path stroke="rgba(37,37,37,0.8156862745098039)" d="M3 3h1M1 6h1" />
<path stroke="#2b2b2b" d="M2 5h1" />
<path stroke="#2b2a29" d="M5 5h1" />
<path stroke="rgba(38,38,38,0.2627450980392157)" d="M5 6h1M4 8h1" />
<path stroke="#4e4a44" d="M1 8h1" />
</svg>