<svg xmlns="http://www.w3.org/2000/svg" viewBox="0 -0.5 12 16" shape-rendering="crispEdges">
<metadata>Made with Pixels to Svg https://codepen.io/shshaw/pen/XbxvNj</metadata>
<path stroke="#252525" d="M1 0h11M1 1h1M11 1h1M1 2h1M11 2h1M1 3h1M4 3h8M4 4h1M1 5h1M4 5h5M1 6h1M1 7h1M1 8h6M11 8h1M7 9h1M11 9h1M1 10h1M11 10h1M0 11h1M7 11h1M11 11h1M4 12h3M11 12h1M3 15h6" />
<path stroke="#504b45" d="M2 1h9M3 2h8M2 3h2M2 4h2M2 5h2M2 6h7M2 7h8M7 8h3M8 9h3M9 10h2M1 11h2M8 11h3M1 12h3M7 12h3M2 13h8M3 14h6" />
<path stroke="#4f4a44" d="M2 2h1M10 8h1M10 12h1" />
<path stroke="#2c2c2b" d="M1 4h1" />
<path stroke="rgba(38,38,38,0.2627450980392157)" d="M9 5h1M10 6h1M11 7h1M2 9h1M0 10h1M3 10h1M7 10h1M4 11h1M0 13h1M11 13h1M1 14h1M10 14h1M2 15h1M9 15h1" />
<path stroke="#3a3939" d="M9 6h1M10 7h1M8 10h1M3 11h1M0 12h1M1 13h1M10 13h1M2 14h1M9 14h1" />
<path stroke="#3d3a37" d="M2 10h1" />
</svg>