<svg xmlns="http://www.w3.org/2000/svg" viewBox="0 -0.5 113 150" shape-rendering="crispEdges">
<metadata>Made with Pixels to Svg https://codepen.io/shshaw/pen/XbxvNj</metadata>
<path stroke="rgba(38,38,38,0.2627450980392157)" d="M28 0h10M28 1h10M28 2h10M28 3h10M28 4h10M28 5h10M28 6h10M28 7h10M28 8h10M94 19h10M94 20h10M94 21h10M94 22h10M94 23h10M94 24h10M94 25h10M94 26h10M94 27h10M0 28h9M0 29h9M0 30h9M0 31h9M0 32h9M0 33h9M0 34h9M0 35h9M0 36h9M0 37h9M75 47h10M75 48h10M75 49h10M75 50h10M75 51h10M75 52h10M75 53h10M75 54h10M75 55h10M38 84h9M66 84h9M38 85h9M66 85h9M38 86h9M66 86h9M38 87h9M66 87h9M38 88h9M66 88h9M38 89h9M66 89h9M38 90h9M66 90h9M38 91h9M66 91h9M38 92h9M66 92h9M38 93h9M66 93h9M38 103h9M66 103h9M38 104h9M66 104h9M38 105h9M66 105h9M38 106h9M66 106h9M38 107h9M66 107h9M38 108h9M66 108h9M38 109h9M66 109h9M38 110h9M66 110h9M38 111h9M66 111h9M38 112h9M66 112h9M28 141h10M75 141h10M28 142h10M75 142h10M28 143h10M75 143h10M28 144h10M75 144h10M28 145h10M75 145h10M28 146h10M75 146h10M28 147h10M75 147h10M28 148h10M75 148h10M28 149h10M75 149h10" />
<path stroke="#292929" d="M38 0h47M38 1h47M38 2h47M38 3h47M38 4h47M38 5h47M38 6h47M38 7h47M38 8h47M56 28h10M56 29h10M56 30h10M56 31h10M56 32h10M56 33h10M56 34h10M56 35h10M56 36h10M56 37h10" />
<path stroke="#252525" d="M85 0h9M85 1h9M85 2h9M85 3h9M85 4h9M85 5h9M85 6h9M85 7h9M85 8h9M19 9h9M19 10h9M19 11h9M19 12h9M19 13h9M19 14h9M19 15h9M19 16h9M19 17h9M19 18h9M9 19h10M9 20h10M9 21h10M9 22h10M9 23h10M9 24h10M9 25h10M9 26h10M9 27h10M47 28h9M66 28h28M47 29h9M66 29h28M47 30h9M66 30h28M47 31h9M66 31h28M47 32h9M66 32h28M47 33h9M66 33h28M47 34h9M66 34h28M47 35h9M66 35h28M47 36h9M66 36h28M47 37h9M66 37h28M0 38h9M38 38h9M0 39h9M38 39h9M0 40h9M38 40h9M0 41h9M38 41h9M0 42h9M38 42h9M0 43h9M38 43h9M0 44h9M38 44h9M0 45h9M38 45h9M0 46h9M38 46h9M0 47h9M28 47h10M47 47h28M0 48h9M28 48h10M47 48h28M0 49h9M28 49h10M47 49h28M0 50h9M28 50h10M47 50h28M0 51h9M28 51h10M47 51h28M0 52h9M28 52h10M47 52h28M0 53h9M28 53h10M47 53h28M0 54h9M28 54h10M47 54h28M0 55h9M28 55h10M47 55h28M0 56h9M85 56h9M0 57h9M85 57h9M0 58h9M85 58h9M0 59h9M85 59h9M0 60h9M85 60h9M0 61h9M85 61h9M0 62h9M85 62h9M0 63h9M85 63h9M0 64h9M85 64h9M0 65h9M85 65h9M0 66h9M94 66h10M0 67h9M94 67h10M0 68h9M94 68h10M0 69h9M94 69h10M0 70h9M94 70h10M0 71h9M94 71h10M0 72h9M94 72h10M0 73h9M94 73h10M0 74h9M94 74h10M0 75h9M47 75h19M104 75h9M0 76h9M47 76h19M104 76h9M0 77h9M47 77h19M104 77h9M0 78h9M47 78h19M104 78h9M0 79h9M47 79h19M104 79h9M0 80h9M47 80h19M104 80h9M0 81h9M47 81h19M104 81h9M0 82h9M47 82h19M104 82h9M0 83h9M47 83h19M104 83h9M0 84h9M28 84h10M75 84h10M104 84h9M0 85h9M28 85h10M75 85h10M104 85h9M0 86h9M28 86h10M75 86h10M104 86h9M0 87h9M28 87h10M75 87h10M104 87h9M0 88h9M28 88h10M75 88h10M104 88h9M0 89h9M28 89h10M75 89h10M104 89h9M0 90h9M28 90h10M75 90h10M104 90h9M0 91h9M28 91h10M75 91h10M104 91h9M0 92h9M28 92h10M75 92h10M104 92h9M0 93h9M28 93h10M75 93h10M104 93h9M0 94h9M28 94h10M75 94h10M104 94h9M0 95h9M28 95h10M75 95h10M104 95h9M0 96h9M28 96h10M75 96h10M104 96h9M0 97h9M28 97h10M75 97h10M104 97h9M0 98h9M28 98h10M75 98h10M104 98h9M0 99h9M28 99h10M75 99h10M104 99h9M0 100h9M28 100h10M75 100h10M104 100h9M0 101h9M28 101h10M75 101h10M104 101h9M0 102h9M28 102h10M75 102h10M104 102h9M0 103h9M28 103h10M75 103h10M104 103h9M0 104h9M28 104h10M75 104h10M104 104h9M0 105h9M28 105h10M75 105h10M104 105h9M0 106h9M28 106h10M75 106h10M104 106h9M0 107h9M28 107h10M75 107h10M104 107h9M0 108h9M28 108h10M75 108h10M104 108h9M0 109h9M28 109h10M75 109h10M104 109h9M0 110h9M28 110h10M75 110h10M104 110h9M0 111h9M28 111h10M75 111h10M104 111h9M0 112h9M28 112h10M75 112h10M104 112h9M0 113h9M47 113h19M104 113h9M0 114h9M47 114h19M104 114h9M0 115h9M47 115h19M104 115h9M0 116h9M47 116h19M104 116h9M0 117h9M47 117h19M104 117h9M0 118h9M47 118h19M104 118h9M0 119h9M47 119h19M104 119h9M0 120h9M47 120h19M104 120h9M0 121h9M47 121h19M104 121h9M9 122h10M94 122h10M9 123h10M94 123h10M9 124h10M94 124h10M9 125h10M94 125h10M9 126h10M94 126h10M9 127h10M94 127h10M9 128h10M94 128h10M9 129h10M94 129h10M9 130h10M94 130h10M19 131h9M85 131h9M19 132h9M85 132h9M19 133h9M85 133h9M19 134h9M85 134h9M19 135h9M85 135h9M19 136h9M85 136h9M19 137h9M85 137h9M19 138h9M85 138h9M19 139h9M85 139h9M19 140h9M85 140h9M38 141h37M38 142h37M38 143h37M38 144h37M38 145h37M38 146h37M38 147h37M38 148h37M38 149h37" />
<path stroke="rgba(37,37,37,0.5098039215686274)" d="M94 0h10M94 1h10M94 2h10M94 3h10M94 4h10M94 5h10M94 6h10M94 7h10M94 8h10M38 47h9M38 48h9M38 49h9M38 50h9M38 51h9M38 52h9M38 53h9M38 54h9M38 55h9" />
<path stroke="#3c3a36" d="M28 9h10M28 10h10M28 11h10M28 12h10M28 13h10M28 14h10M28 15h10M28 16h10M28 17h10M28 18h10M9 28h10M9 29h10M9 30h10M9 31h10M9 32h10M9 33h10M9 34h10M9 35h10M9 36h10M9 37h10M28 56h10M75 56h10M28 57h10M75 57h10M28 58h10M75 58h10M28 59h10M75 59h10M28 60h10M75 60h10M28 61h10M75 61h10M28 62h10M75 62h10M28 63h10M75 63h10M28 64h10M75 64h10M28 65h10M75 65h10M38 75h9M66 75h9M94 75h10M38 76h9M66 76h9M94 76h10M38 77h9M66 77h9M94 77h10M38 78h9M66 78h9M94 78h10M38 79h9M66 79h9M94 79h10M38 80h9M66 80h9M94 80h10M38 81h9M66 81h9M94 81h10M38 82h9M66 82h9M94 82h10M38 83h9M66 83h9M94 83h10M9 113h10M38 113h9M66 113h9M94 113h10M9 114h10M38 114h9M66 114h9M94 114h10M9 115h10M38 115h9M66 115h9M94 115h10M9 116h10M38 116h9M66 116h9M94 116h10M9 117h10M38 117h9M66 117h9M94 117h10M9 118h10M38 118h9M66 118h9M94 118h10M9 119h10M38 119h9M66 119h9M94 119h10M9 120h10M38 120h9M66 120h9M94 120h10M9 121h10M38 121h9M66 121h9M94 121h10M28 131h10M75 131h10M28 132h10M75 132h10M28 133h10M75 133h10M28 134h10M75 134h10M28 135h10M75 135h10M28 136h10M75 136h10M28 137h10M75 137h10M28 138h10M75 138h10M28 139h10M75 139h10M28 140h10M75 140h10" />
<path stroke="#504b45" d="M38 9h47M38 10h47M38 11h47M38 12h47M38 13h47M38 14h47M38 15h47M38 16h47M38 17h47M38 18h47M28 19h57M28 20h57M28 21h57M28 22h57M28 23h57M28 24h57M28 25h57M28 26h57M28 27h57M19 28h19M19 29h19M19 30h19M19 31h19M19 32h19M19 33h19M19 34h19M19 35h19M19 36h19M19 37h19M9 38h29M9 39h29M9 40h29M9 41h29M9 42h29M9 43h29M9 44h29M9 45h29M9 46h29M9 47h19M9 48h19M9 49h19M9 50h19M9 51h19M9 52h19M9 53h19M9 54h19M9 55h19M9 56h19M38 56h18M66 56h9M9 57h19M38 57h18M66 57h9M9 58h19M38 58h18M66 58h9M9 59h19M38 59h18M66 59h9M9 60h19M38 60h18M66 60h9M9 61h19M38 61h18M66 61h9M9 62h19M38 62h18M66 62h9M9 63h19M38 63h18M66 63h9M9 64h19M38 64h18M66 64h9M9 65h19M38 65h18M66 65h9M9 66h76M9 67h76M9 68h76M9 69h76M9 70h76M9 71h76M9 72h76M9 73h76M9 74h76M9 75h29M75 75h19M9 76h29M75 76h19M9 77h29M75 77h19M9 78h29M75 78h19M9 79h29M75 79h19M9 80h29M75 80h19M9 81h29M75 81h19M9 82h29M75 82h19M9 83h29M75 83h19M9 84h19M85 84h19M9 85h19M85 85h19M9 86h19M85 86h19M9 87h19M85 87h19M9 88h19M85 88h19M9 89h19M85 89h19M9 90h19M85 90h19M9 91h19M85 91h19M9 92h19M85 92h19M9 93h19M85 93h19M9 94h19M85 94h19M9 95h19M85 95h19M9 96h19M85 96h19M9 97h19M85 97h19M9 98h19M85 98h19M9 99h19M85 99h19M9 100h19M85 100h19M9 101h19M85 101h19M9 102h19M85 102h19M9 103h19M85 103h19M9 104h19M85 104h19M9 105h19M85 105h19M9 106h19M85 106h19M9 107h19M85 107h19M9 108h19M85 108h19M9 109h19M85 109h19M9 110h19M85 110h19M9 111h19M85 111h19M9 112h19M85 112h19M19 113h19M75 113h19M19 114h19M75 114h19M19 115h19M75 115h19M19 116h19M75 116h19M19 117h19M75 117h19M19 118h19M75 118h19M19 119h19M75 119h19M19 120h19M75 120h19M19 121h19M75 121h19M19 122h66M19 123h66M19 124h66M19 125h66M19 126h66M19 127h66M19 128h66M19 129h66M19 130h66M38 131h37M38 132h37M38 133h37M38 134h37M38 135h37M38 136h37M38 137h37M38 138h37M38 139h37M38 140h37" />
<path stroke="#4c4742" d="M85 9h9M85 10h9M85 11h9M85 12h9M85 13h9M85 14h9M85 15h9M85 16h9M85 17h9M85 18h9" />
<path stroke="#3d3d3d" d="M94 9h10M94 10h10M94 11h10M94 12h10M94 13h10M94 14h10M94 15h10M94 16h10M94 17h10M94 18h10" />
<path stroke="#4f4a44" d="M19 19h9M19 20h9M19 21h9M19 22h9M19 23h9M19 24h9M19 25h9M19 26h9M19 27h9M38 28h9M38 29h9M38 30h9M38 31h9M38 32h9M38 33h9M38 34h9M38 35h9M38 36h9M38 37h9M56 56h10M56 57h10M56 58h10M56 59h10M56 60h10M56 61h10M56 62h10M56 63h10M56 64h10M56 65h10" />
<path stroke="#3c3936" d="M85 19h9M85 20h9M85 21h9M85 22h9M85 23h9M85 24h9M85 25h9M85 26h9M85 27h9" />
<path stroke="#4d4843" d="M85 66h9M85 67h9M85 68h9M85 69h9M85 70h9M85 71h9M85 72h9M85 73h9M85 74h9" />
<path stroke="#4f4b45" d="M85 122h9M85 123h9M85 124h9M85 125h9M85 126h9M85 127h9M85 128h9M85 129h9M85 130h9" />
</svg>