<svg xmlns="http://www.w3.org/2000/svg" viewBox="0 -0.5 12 16" shape-rendering="crispEdges">
<metadata>Made with Pixels to Svg https://codepen.io/shshaw/pen/XbxvNj</metadata>
<path stroke="#252525" d="M0 0h12M0 1h1M11 1h1M0 2h1M11 2h1M0 3h7M6 4h1M4 7h1M3 10h1M6 12h1M6 13h1M2 14h1M6 14h1M2 15h5" />
<path stroke="#504b45" d="M1 1h10M1 2h10M9 3h1M7 4h2M7 5h2M6 6h2M5 7h3M5 8h2M5 9h2M4 10h2M4 11h2M4 12h2M3 13h3M3 14h2" />
<path stroke="#2a2929" d="M7 3h1" />
<path stroke="#4f4a44" d="M8 3h1" />
<path stroke="#403d39" d="M10 3h1" />
<path stroke="rgba(37,37,37,0.5098039215686274)" d="M11 3h1M10 4h1M2 13h1" />
<path stroke="#4d4843" d="M9 4h1" />
<path stroke="#414141" d="M5 5h1" />
<path stroke="#413e3a" d="M6 5h1M6 11h1" />
<path stroke="#2d2c2c" d="M9 5h1" />
<path stroke="rgba(38,38,38,0.2627450980392157)" d="M4 6h1M9 6h1M3 8h1M8 8h1M7 10h1M2 12h1" />
<path stroke="#423f3b" d="M5 6h1" />
<path stroke="#494540" d="M8 6h1" />
<path stroke="#2f2e2d" d="M8 7h1" />
<path stroke="#353432" d="M4 8h1" />
<path stroke="#3d3a37" d="M7 8h1" />
<path stroke="#373737" d="M3 9h1M3 11h1" />
<path stroke="#4b4641" d="M4 9h1M6 10h1" />
<path stroke="#292929" d="M7 9h1" />
<path stroke="rgba(33,33,33,0.12156862745098039)" d="M8 9h1M2 11h1M7 11h1" />
<path stroke="#45413d" d="M3 12h1" />
<path stroke="#4d4943" d="M5 14h1" />
</svg>