<svg xmlns="http://www.w3.org/2000/svg" viewBox="0 -0.5 12 16" shape-rendering="crispEdges">
<metadata>Made with Pixels to Svg https://codepen.io/shshaw/pen/XbxvNj</metadata>
<path stroke="rgba(38,38,38,0.2627450980392157)" d="M3 0h1M8 0h1M4 4h1M7 4h1M4 5h1M7 5h1M4 10h1M7 10h1M4 11h1M7 11h1M3 15h1M8 15h1" />
<path stroke="#252525" d="M4 0h4M2 1h1M9 1h1M1 2h1M10 2h1M0 3h1M5 3h2M11 3h1M0 4h1M11 4h1M0 5h1M11 5h1M5 6h2M10 6h1M2 7h1M9 7h1M1 8h1M10 8h1M0 9h1M5 9h2M11 9h1M0 10h1M3 10h1M8 10h1M11 10h1M0 11h1M3 11h1M8 11h1M11 11h1M0 12h1M5 12h2M11 12h1M1 13h1M10 13h1M2 14h1M9 14h1M4 15h4" />
<path stroke="#413e3a" d="M3 1h1M8 1h1M3 14h1M8 14h1" />
<path stroke="#504b45" d="M4 1h4M2 2h8M1 3h3M8 3h3M1 4h2M9 4h2M1 5h2M9 5h2M3 6h1M8 6h2M4 7h5M3 8h7M1 9h3M8 9h3M1 10h2M9 10h2M1 11h2M9 11h2M1 12h3M8 12h3M2 13h8M4 14h4" />
<path stroke="#373737" d="M4 3h1M7 3h1M3 4h1M8 4h1M3 5h1M8 5h1M4 6h1M7 6h1M4 9h1M7 9h1M4 12h1M7 12h1" />
<path stroke="#2a2a2a" d="M1 6h1" />
<path stroke="#4f4a44" d="M2 6h1" />
<path stroke="#4e4943" d="M3 7h1" />
<path stroke="#4e4a44" d="M2 8h1" />
</svg>