<svg xmlns="http://www.w3.org/2000/svg" viewBox="0 -0.5 113 150" shape-rendering="crispEdges">
<metadata>Made with Pixels to Svg https://codepen.io/shshaw/pen/XbxvNj</metadata>
<path stroke="rgba(38,38,38,0.2627450980392157)" d="M28 0h10M75 0h10M28 1h10M75 1h10M28 2h10M75 2h10M28 3h10M75 3h10M28 4h10M75 4h10M28 5h10M75 5h10M28 6h10M75 6h10M28 7h10M75 7h10M28 8h10M75 8h10M38 38h9M66 38h9M38 39h9M66 39h9M38 40h9M66 40h9M38 41h9M66 41h9M38 42h9M66 42h9M38 43h9M66 43h9M38 44h9M66 44h9M38 45h9M66 45h9M38 46h9M66 46h9M38 56h9M66 56h9M38 57h9M66 57h9M38 58h9M66 58h9M38 59h9M66 59h9M38 60h9M66 60h9M38 61h9M66 61h9M38 62h9M66 62h9M38 63h9M66 63h9M38 64h9M66 64h9M38 65h9M66 65h9M28 94h10M28 95h10M28 96h10M28 97h10M28 98h10M28 99h10M28 100h10M28 101h10M28 102h10M104 113h9M104 114h9M104 115h9M104 116h9M104 117h9M104 118h9M104 119h9M104 120h9M104 121h9M9 122h10M9 123h10M9 124h10M9 125h10M9 126h10M9 127h10M9 128h10M9 129h10M9 130h10M75 141h10M75 142h10M75 143h10M75 144h10M75 145h10M75 146h10M75 147h10M75 148h10M75 149h10" />
<path stroke="#252525" d="M38 0h37M38 1h37M38 2h37M38 3h37M38 4h37M38 5h37M38 6h37M38 7h37M38 8h37M19 9h9M85 9h9M19 10h9M85 10h9M19 11h9M85 11h9M19 12h9M85 12h9M19 13h9M85 13h9M19 14h9M85 14h9M19 15h9M85 15h9M19 16h9M85 16h9M19 17h9M85 17h9M19 18h9M85 18h9M9 19h10M94 19h10M9 20h10M94 20h10M9 21h10M94 21h10M9 22h10M94 22h10M9 23h10M94 23h10M9 24h10M94 24h10M9 25h10M94 25h10M9 26h10M94 26h10M9 27h10M94 27h10M0 28h9M47 28h19M104 28h9M0 29h9M47 29h19M104 29h9M0 30h9M47 30h19M104 30h9M0 31h9M47 31h19M104 31h9M0 32h9M47 32h19M104 32h9M0 33h9M47 33h19M104 33h9M0 34h9M47 34h19M104 34h9M0 35h9M47 35h19M104 35h9M0 36h9M47 36h19M104 36h9M0 37h9M47 37h19M104 37h9M0 38h9M28 38h10M75 38h10M104 38h9M0 39h9M28 39h10M75 39h10M104 39h9M0 40h9M28 40h10M75 40h10M104 40h9M0 41h9M28 41h10M75 41h10M104 41h9M0 42h9M28 42h10M75 42h10M104 42h9M0 43h9M28 43h10M75 43h10M104 43h9M0 44h9M28 44h10M75 44h10M104 44h9M0 45h9M28 45h10M75 45h10M104 45h9M0 46h9M28 46h10M75 46h10M104 46h9M0 47h9M28 47h10M75 47h10M104 47h9M0 48h9M28 48h10M75 48h10M104 48h9M0 49h9M28 49h10M75 49h10M104 49h9M0 50h9M28 50h10M75 50h10M104 50h9M0 51h9M28 51h10M75 51h10M104 51h9M0 52h9M28 52h10M75 52h10M104 52h9M0 53h9M28 53h10M75 53h10M104 53h9M0 54h9M28 54h10M75 54h10M104 54h9M0 55h9M28 55h10M75 55h10M104 55h9M0 56h9M28 56h10M75 56h10M104 56h9M0 57h9M28 57h10M75 57h10M104 57h9M0 58h9M28 58h10M75 58h10M104 58h9M0 59h9M28 59h10M75 59h10M104 59h9M0 60h9M28 60h10M75 60h10M104 60h9M0 61h9M28 61h10M75 61h10M104 61h9M0 62h9M28 62h10M75 62h10M104 62h9M0 63h9M28 63h10M75 63h10M104 63h9M0 64h9M28 64h10M75 64h10M104 64h9M0 65h9M28 65h10M75 65h10M104 65h9M0 66h9M47 66h19M104 66h9M0 67h9M47 67h19M104 67h9M0 68h9M47 68h19M104 68h9M0 69h9M47 69h19M104 69h9M0 70h9M47 70h19M104 70h9M0 71h9M47 71h19M104 71h9M0 72h9M47 72h19M104 72h9M0 73h9M47 73h19M104 73h9M0 74h9M47 74h19M104 74h9M9 75h10M104 75h9M9 76h10M104 76h9M9 77h10M104 77h9M9 78h10M104 78h9M9 79h10M104 79h9M9 80h10M104 80h9M9 81h10M104 81h9M9 82h10M104 82h9M9 83h10M104 83h9M19 84h9M104 84h9M19 85h9M104 85h9M19 86h9M104 86h9M19 87h9M104 87h9M19 88h9M104 88h9M19 89h9M104 89h9M19 90h9M104 90h9M19 91h9M104 91h9M19 92h9M104 92h9M19 93h9M104 93h9M38 94h28M75 94h10M104 94h9M38 95h28M75 95h10M104 95h9M38 96h28M75 96h10M104 96h9M38 97h28M75 97h10M104 97h9M38 98h28M75 98h10M104 98h9M38 99h28M75 99h10M104 99h9M38 100h28M75 100h10M104 100h9M38 101h28M75 101h10M104 101h9M38 102h28M75 102h10M104 102h9M66 103h9M104 103h9M66 104h9M104 104h9M66 105h9M104 105h9M66 106h9M104 106h9M66 107h9M104 107h9M66 108h9M104 108h9M66 109h9M104 109h9M66 110h9M104 110h9M66 111h9M104 111h9M66 112h9M104 112h9M19 113h28M56 113h10M19 114h28M56 114h10M19 115h28M56 115h10M19 116h28M56 116h10M19 117h28M56 117h10M19 118h28M56 118h10M19 119h28M56 119h10M19 120h28M56 120h10M19 121h28M56 121h10M94 122h10M94 123h10M94 124h10M94 125h10M94 126h10M94 127h10M94 128h10M94 129h10M94 130h10M85 131h9M85 132h9M85 133h9M85 134h9M85 135h9M85 136h9M85 137h9M85 138h9M85 139h9M85 140h9M19 141h9M19 142h9M19 143h9M19 144h9M19 145h9M19 146h9M19 147h9M19 148h9M19 149h9" />
<path stroke="#3c3a36" d="M28 9h10M75 9h10M28 10h10M75 10h10M28 11h10M75 11h10M28 12h10M75 12h10M28 13h10M75 13h10M28 14h10M75 14h10M28 15h10M75 15h10M28 16h10M75 16h10M28 17h10M75 17h10M28 18h10M75 18h10M9 28h10M38 28h9M66 28h9M94 28h10M9 29h10M38 29h9M66 29h9M94 29h10M9 30h10M38 30h9M66 30h9M94 30h10M9 31h10M38 31h9M66 31h9M94 31h10M9 32h10M38 32h9M66 32h9M94 32h10M9 33h10M38 33h9M66 33h9M94 33h10M9 34h10M38 34h9M66 34h9M94 34h10M9 35h10M38 35h9M66 35h9M94 35h10M9 36h10M38 36h9M66 36h9M94 36h10M9 37h10M38 37h9M66 37h9M94 37h10M9 66h10M38 66h9M66 66h9M9 67h10M38 67h9M66 67h9M9 68h10M38 68h9M66 68h9M9 69h10M38 69h9M66 69h9M9 70h10M38 70h9M66 70h9M9 71h10M38 71h9M66 71h9M9 72h10M38 72h9M66 72h9M9 73h10M38 73h9M66 73h9M9 74h10M38 74h9M66 74h9M28 84h10M75 84h10M28 85h10M75 85h10M28 86h10M75 86h10M28 87h10M75 87h10M28 88h10M75 88h10M28 89h10M75 89h10M28 90h10M75 90h10M28 91h10M75 91h10M28 92h10M75 92h10M28 93h10M75 93h10M94 113h10M94 114h10M94 115h10M94 116h10M94 117h10M94 118h10M94 119h10M94 120h10M94 121h10M75 131h10M75 132h10M75 133h10M75 134h10M75 135h10M75 136h10M75 137h10M75 138h10M75 139h10M75 140h10" />
<path stroke="#504b45" d="M38 9h37M38 10h37M38 11h37M38 12h37M38 13h37M38 14h37M38 15h37M38 16h37M38 17h37M38 18h37M28 19h66M28 20h66M28 21h66M28 22h66M28 23h66M28 24h66M28 25h66M28 26h66M28 27h66M19 28h19M75 28h19M19 29h19M75 29h19M19 30h19M75 30h19M19 31h19M75 31h19M19 32h19M75 32h19M19 33h19M75 33h19M19 34h19M75 34h19M19 35h19M75 35h19M19 36h19M75 36h19M19 37h19M75 37h19M9 38h19M85 38h19M9 39h19M85 39h19M9 40h19M85 40h19M9 41h19M85 41h19M9 42h19M85 42h19M9 43h19M85 43h19M9 44h19M85 44h19M9 45h19M85 45h19M9 46h19M85 46h19M9 47h19M85 47h19M9 48h19M85 48h19M9 49h19M85 49h19M9 50h19M85 50h19M9 51h19M85 51h19M9 52h19M85 52h19M9 53h19M85 53h19M9 54h19M85 54h19M9 55h19M85 55h19M9 56h19M85 56h19M9 57h19M85 57h19M9 58h19M85 58h19M9 59h19M85 59h19M9 60h19M85 60h19M9 61h19M85 61h19M9 62h19M85 62h19M9 63h19M85 63h19M9 64h19M85 64h19M9 65h19M85 65h19M19 66h19M75 66h29M19 67h19M75 67h29M19 68h19M75 68h29M19 69h19M75 69h29M19 70h19M75 70h29M19 71h19M75 71h29M19 72h19M75 72h29M19 73h19M75 73h29M19 74h19M75 74h29M28 75h76M28 76h76M28 77h76M28 78h76M28 79h76M28 80h76M28 81h76M28 82h76M28 83h76M38 84h9M56 84h19M85 84h19M38 85h9M56 85h19M85 85h19M38 86h9M56 86h19M85 86h19M38 87h9M56 87h19M85 87h19M38 88h9M56 88h19M85 88h19M38 89h9M56 89h19M85 89h19M38 90h9M56 90h19M85 90h19M38 91h9M56 91h19M85 91h19M38 92h9M56 92h19M85 92h19M38 93h9M56 93h19M85 93h19M85 94h19M85 95h19M85 96h19M85 97h19M85 98h19M85 99h19M85 100h19M85 101h19M85 102h19M75 103h29M75 104h29M75 105h29M75 106h29M75 107h29M75 108h29M75 109h29M75 110h29M75 111h29M75 112h29M75 113h19M75 114h19M75 115h19M75 116h19M75 117h19M75 118h19M75 119h19M75 120h19M75 121h19M28 122h57M28 123h57M28 124h57M28 125h57M28 126h57M28 127h57M28 128h57M28 129h57M28 130h57M28 131h47M28 132h47M28 133h47M28 134h47M28 135h47M28 136h47M28 137h47M28 138h47M28 139h47M28 140h47" />
<path stroke="#4f4b45" d="M19 19h9M19 20h9M19 21h9M19 22h9M19 23h9M19 24h9M19 25h9M19 26h9M19 27h9" />
<path stroke="#4d4843" d="M19 75h9M19 76h9M19 77h9M19 78h9M19 79h9M19 80h9M19 81h9M19 82h9M19 83h9" />
<path stroke="#4f4a44" d="M47 84h9M47 85h9M47 86h9M47 87h9M47 88h9M47 89h9M47 90h9M47 91h9M47 92h9M47 93h9M66 113h9M66 114h9M66 115h9M66 116h9M66 117h9M66 118h9M66 119h9M66 120h9M66 121h9M85 122h9M85 123h9M85 124h9M85 125h9M85 126h9M85 127h9M85 128h9M85 129h9M85 130h9" />
<path stroke="rgba(37,37,37,0.5098039215686274)" d="M66 94h9M66 95h9M66 96h9M66 97h9M66 98h9M66 99h9M66 100h9M66 101h9M66 102h9M9 141h10M9 142h10M9 143h10M9 144h10M9 145h10M9 146h10M9 147h10M9 148h10M9 149h10" />
<path stroke="#292929" d="M47 113h9M47 114h9M47 115h9M47 116h9M47 117h9M47 118h9M47 119h9M47 120h9M47 121h9M28 141h47M28 142h47M28 143h47M28 144h47M28 145h47M28 146h47M28 147h47M28 148h47M28 149h47" />
<path stroke="#3c3936" d="M19 122h9M19 123h9M19 124h9M19 125h9M19 126h9M19 127h9M19 128h9M19 129h9M19 130h9" />
<path stroke="#3d3d3d" d="M9 131h10M9 132h10M9 133h10M9 134h10M9 135h10M9 136h10M9 137h10M9 138h10M9 139h10M9 140h10" />
<path stroke="#4c4742" d="M19 131h9M19 132h9M19 133h9M19 134h9M19 135h9M19 136h9M19 137h9M19 138h9M19 139h9M19 140h9" />
</svg>