<svg xmlns="http://www.w3.org/2000/svg" viewBox="0 -0.5 20 20" shape-rendering="crispEdges">
<metadata>Made with Pixels to Svg https://codepen.io/shshaw/pen/XbxvNj</metadata>
<path stroke="#88695a" d="M3 3h1M7 3h5M2 4h1M2 5h1M2 6h1M2 7h1M2 8h1M2 9h1M15 9h1M2 10h1M15 10h1M15 11h1M15 12h1M15 13h1M15 14h1M15 15h1M9 16h6" />
<path stroke="#8c6d5f" d="M4 3h3" />
<path stroke="#806051" d="M12 3h5M7 6h1M15 6h1M8 7h1M15 7h1M9 8h1M15 8h1M10 9h1M11 10h1M2 11h1M12 11h1M2 12h1M13 12h1M2 13h1M14 13h1M2 14h1M2 15h1M2 16h1M5 16h4M2 17h1" />
<path stroke="#633f2f" d="M3 4h14M3 5h1M16 5h1M3 6h1M6 6h1M16 6h1M3 7h1M5 7h1M7 7h1M16 7h1M3 8h1M6 8h2M16 8h1M3 9h1M5 9h1M7 9h3M16 9h1M3 10h1M8 10h1M10 10h1M16 10h1M3 11h1M9 11h3M13 11h2M16 11h1M3 12h1M11 12h1M14 12h1M16 12h1M3 13h1M5 13h5M11 13h3M16 13h1M3 14h1M13 14h1M16 14h1M3 15h1M13 15h2M16 15h1M3 16h1M16 16h1M3 17h14" />
<path stroke="#402a1f" d="M17 4h1M17 5h1M3 18h2" />
<path stroke="#462d22" d="M4 5h1" />
<path stroke="#38241b" d="M5 5h9M4 6h1M17 6h1M4 7h1M17 7h1M4 8h1M17 8h1M4 9h1M17 9h1M4 10h1M17 10h1M4 11h1M17 11h1M4 12h1M17 12h1M4 13h1M17 13h1M4 14h1M17 14h1M17 15h1M17 16h1M17 17h1M5 18h12" />
<path stroke="#472f24" d="M14 5h2M4 15h1M4 16h1" />
<path stroke="#6f4b3b" d="M5 6h1M6 7h1M9 7h6M8 8h1M9 10h1M10 12h1M12 12h1M5 14h6M12 14h1M14 14h1" />
<path stroke="#563324" d="M8 6h7M11 9h4M5 12h4M5 15h7" />
<path stroke="#3f271d" d="M5 8h1M6 9h1M7 10h1M8 11h1M9 12h1M10 13h1M11 14h1M12 15h1" />
<path stroke="#6a4433" d="M10 8h5M5 10h2M12 10h3M5 11h3" />
<path stroke="#755445" d="M15 16h1" />
<path stroke="rgba(100,64,48,0.5019607843137255)" d="M2 18h1M17 18h1" />
</svg>