<svg xmlns="http://www.w3.org/2000/svg" viewBox="0 -0.5 20 20" shape-rendering="crispEdges">
<metadata>Made with Pixels to Svg https://codepen.io/shshaw/pen/XbxvNj</metadata>
<path stroke="#c8b113" d="M4 3h1M7 3h1M3 4h2M6 4h1M3 5h3M3 8h1M16 8h1M3 9h1M16 9h1M3 10h1M15 10h2M3 11h2M15 11h1M3 12h1M4 13h1M15 13h1M3 14h1M15 15h1M3 16h1M12 16h1M8 17h1M13 17h1" />
<path stroke="#d7bf1f" d="M5 3h1M8 3h2M15 3h1M5 4h1M9 4h1M11 4h2M16 4h1M14 5h1M3 6h2M3 7h1M16 7h1M4 9h1M4 10h1M4 12h1M15 12h2M3 13h1M16 13h1M4 14h1M15 14h1M3 15h3M14 15h1M16 15h1M6 16h1M8 16h4M13 16h2M5 17h1M9 17h1M12 17h1M14 17h1" />
<path stroke="#e3cb28" d="M6 3h1M10 3h5M7 4h2M10 4h1M13 4h3M15 5h2M15 6h2M4 7h1M15 7h1M4 8h1M15 8h1M15 9h1M16 11h1M16 14h1M4 16h2M7 16h1M15 16h2M4 17h1M6 17h2M10 17h2M15 17h1" />
</svg>