<svg xmlns="http://www.w3.org/2000/svg" viewBox="0 -0.5 20 20" shape-rendering="crispEdges">
<metadata>Made with Pixels to Svg https://codepen.io/shshaw/pen/XbxvNj</metadata>
<path stroke="#a1a1a2" d="M0 0h1M6 0h1M1 1h1M11 1h1M13 1h1M17 1h1M4 2h1M18 2h1M0 3h1M3 3h1M16 3h1M19 3h1M3 4h1M19 4h1M4 5h4M9 5h3M15 5h1M0 6h1M3 6h1M7 6h1M13 6h1M15 6h1M3 7h1M7 7h1M6 8h2M9 8h1M13 8h1M0 9h1M4 9h2M8 9h1M11 9h1M13 9h1M8 10h1M11 11h1M0 12h1M10 12h1M7 13h1M11 13h1M4 14h1M7 14h1M9 14h4M1 15h1M3 15h1M10 15h1M15 15h1M4 16h1M9 16h3M13 16h1M19 17h1M11 19h1" />
<path stroke="#9f9b9d" d="M1 0h2M4 0h2M18 0h1M19 1h1M2 2h1M11 2h2M14 2h1M19 2h1M2 3h1M4 3h2M9 3h1M11 3h1M14 3h1M2 4h1M9 4h1M11 4h1M1 5h1M12 5h1M9 6h1M0 7h1M4 7h1M19 7h1M3 8h1M9 11h1M0 13h1M16 13h1M2 14h1M5 15h1M8 15h1M4 17h1M6 17h1M10 17h1M14 17h1M16 17h1M0 18h1M11 18h1M19 18h1M18 19h2" />
<path stroke="#959295" d="M3 0h1M14 0h1M6 1h1M8 1h1M7 2h1M13 2h1M17 2h1M12 3h1M5 4h1M12 4h1M18 4h1M17 5h1M1 7h2M13 7h1M15 8h1M18 8h1M7 9h1M10 9h1M12 9h1M14 9h1M1 10h1M11 10h1M19 10h1M0 11h1M3 12h1M5 12h1M11 12h1M14 12h1M13 14h1M16 14h1M2 15h1M4 15h1M6 15h2M5 16h1M5 17h1" />
<path stroke="#959394" d="M7 0h2M10 0h2M2 1h1M15 1h1M0 2h2M9 2h1M16 2h1M6 3h1M10 3h1M18 3h1M6 4h2M1 6h1M5 6h2M12 6h1M5 7h1M8 7h1M10 7h1M2 8h1M8 8h1M14 8h1M16 8h1M19 8h1M6 9h1M0 10h1M8 12h1M5 13h1M8 13h1M0 14h1M18 14h2M17 15h2M8 16h1M12 16h1M0 17h1M11 17h2M15 17h1M10 18h1M8 19h1" />
<path stroke="#9f999d" d="M9 0h1M12 0h1M15 0h3M19 0h1M9 1h1M3 2h1M5 2h1M8 2h1M15 2h1M1 3h1M7 3h2M13 3h1M15 3h1M17 3h1M0 4h1M10 4h1M13 4h4M0 5h1M2 5h2M13 5h2M18 5h2M2 6h1M8 6h1M10 6h2M17 6h2M9 7h1M14 7h2M18 7h1M1 8h1M4 8h2M10 8h3M2 9h1M16 9h3M9 10h2M8 11h1M4 12h1M6 12h2M9 12h1M12 12h1M15 12h1M3 13h2M6 13h1M9 13h2M15 13h1M3 14h1M6 14h1M12 15h1M16 15h1M3 16h1M6 16h2M14 16h3M19 16h1M3 17h1M7 17h2M1 19h1" />
<path stroke="#969396" d="M13 0h1M14 1h1M16 1h1" />
<path stroke="#9c9a9c" d="M0 1h1" />
<path stroke="#979697" d="M3 1h1" />
<path stroke="#989797" d="M4 1h1" />
<path stroke="#9a999a" d="M5 1h1" />
<path stroke="#9a9998" d="M7 1h1" />
<path stroke="#9d9a9d" d="M10 1h1" />
<path stroke="#999598" d="M12 1h1M10 19h1" />
<path stroke="#9a989b" d="M18 1h1M10 11h1" />
<path stroke="#9a9999" d="M6 2h1" />
<path stroke="#9e9b9e" d="M10 2h1" />
<path stroke="#949193" d="M1 4h1" />
<path stroke="#999898" d="M4 4h1" />
<path stroke="#a09ca0" d="M8 4h1M8 5h1M13 13h1M5 14h1M0 16h1" />
<path stroke="#969498" d="M17 4h1M13 12h1" />
<path stroke="#969598" d="M16 5h1M11 7h1" />
<path stroke="#a09d9e" d="M4 6h1" />
<path stroke="#99979b" d="M14 6h1" />
<path stroke="#98979a" d="M16 6h1" />
<path stroke="#969496" d="M19 6h1" />
<path stroke="#9f9c9c" d="M6 7h1" />
<path stroke="#9a999c" d="M12 7h1" />
<path stroke="#9b9a9d" d="M16 7h1" />
<path stroke="#989799" d="M17 7h1M16 12h1" />
<path stroke="#9a9798" d="M0 8h1" />
<path stroke="#9e9c9f" d="M17 8h1" />
<path stroke="#9d9999" d="M1 9h1" />
<path stroke="#a19c9c" d="M3 9h1" />
<path stroke="#999699" d="M9 9h1M13 15h1" />
<path stroke="#a09da1" d="M15 9h1" />
<path stroke="#a09d9f" d="M19 9h1" />
<path stroke="#e3cb28" d="M2 10h3M6 10h2M12 10h3M1 11h2M4 11h1M6 11h1M13 11h1M17 11h2M2 12h1M2 13h1M17 13h2M1 16h1M2 17h1M17 17h2M1 18h5M13 18h4M2 19h1M14 19h4" />
<path stroke="#d5c13c" d="M5 10h1M15 10h3M3 11h1M5 11h1M7 11h1M12 11h1M14 11h3M1 12h1M17 12h2M1 13h1M2 16h1M17 16h2M1 17h1M12 18h1M17 18h2M3 19h3M12 19h1" />
<path stroke="#a29ea1" d="M18 10h1M19 11h1" />
<path stroke="#9f9b9f" d="M19 12h1M12 13h1M14 13h1M19 13h1M1 14h1M8 14h1M14 14h2M0 15h1M9 17h1M0 19h1M9 19h1" />
<path stroke="#a19fa2" d="M17 14h1" />
<path stroke="#9d989b" d="M9 15h1" />
<path stroke="#9b979a" d="M11 15h1" />
<path stroke="#9e9c9e" d="M14 15h1" />
<path stroke="#a19fa1" d="M19 15h1" />
<path stroke="#9b9a9b" d="M13 17h1" />
<path stroke="#c9b94c" d="M6 18h1M6 19h1M13 19h1" />
<path stroke="#c0b259" d="M7 18h1M7 19h1" />
<path stroke="#9d999d" d="M8 18h1" />
<path stroke="#989395" d="M9 18h1" />
</svg>