<svg xmlns="http://www.w3.org/2000/svg" viewBox="0 -0.5 20 20" shape-rendering="crispEdges">
<metadata>Made with Pixels to Svg https://codepen.io/shshaw/pen/XbxvNj</metadata>
<path stroke="#1e203e" d="M8 0h5M7 1h1M13 1h1M6 2h1M14 2h1M6 3h1M14 3h1M5 4h1M15 4h1M5 5h1M15 5h1M5 6h1M15 6h1M5 7h2M14 7h2M5 8h3M13 8h3M5 9h1M8 9h5M15 9h1M7 12h1M13 12h1M8 13h1M12 13h1" />
<path stroke="#ffffff" d="M8 1h5M7 2h2M10 2h4M7 3h1M9 3h5M6 4h5M12 4h3M7 5h7M7 6h7" />
<path stroke="#cccccc" d="M9 2h1M8 3h1M11 4h1M6 5h1M14 5h1M6 6h1M14 6h1M7 7h7M8 8h5" />
<path stroke="#181818" d="M4 4h1M16 4h1M4 5h1M16 5h1M12 14h1" />
<path stroke="#f65544" d="M6 9h2M13 9h1M7 10h7M8 11h5" />
<path stroke="#693f4a" d="M14 9h1" />
<path stroke="#6f271b" d="M6 10h1M14 10h1M7 11h1M13 11h1M8 12h5" />
</svg>