<svg xmlns="http://www.w3.org/2000/svg" viewBox="0 -0.5 20 20" shape-rendering="crispEdges">
<metadata>Made with Pixels to Svg https://codepen.io/shshaw/pen/XbxvNj</metadata>
<path stroke="#1e203e" d="M8 5h5M7 6h1M13 6h1M6 7h1M14 7h1M5 8h1M15 8h1M5 9h1M15 9h1M5 10h1M15 10h1M5 11h1M15 11h1M6 12h1M9 12h1M12 12h1M14 12h1M6 13h1M14 13h1M5 14h1M7 14h1M13 14h1M15 14h1M4 15h1M8 15h5M16 15h1M4 16h1M16 16h1M4 17h1M7 17h1M13 17h1M16 17h1M4 18h1M8 18h2M12 18h1M16 18h1M4 19h2M8 19h1M15 19h2" />
<path stroke="#ffffff" d="M8 6h1M10 6h3M7 7h4M12 7h2M6 8h9M6 9h9M7 10h7M7 11h1M7 12h2M10 12h2M13 12h1M10 13h2" />
<path stroke="#cccccc" d="M9 6h1M11 7h1M6 10h1M14 10h1M6 11h1M14 11h1M5 17h1M15 17h1M5 18h1M15 18h1" />
<path stroke="#877076" d="M8 11h1M13 11h1" />
<path stroke="#693f4a" d="M9 11h4M7 13h3M12 13h2M8 14h5" />
<path stroke="#f65544" d="M6 14h1M14 14h1M5 15h3M13 15h3M5 16h1M7 16h7M15 16h1" />
<path stroke="#6f271b" d="M6 16h1M14 16h1M8 17h5" />
<path stroke="#ffa82e" d="M10 18h2" />
</svg>