<svg xmlns="http://www.w3.org/2000/svg" viewBox="0 -0.5 40 20" shape-rendering="crispEdges">
<metadata>Made with Pixels to Svg https://codepen.io/shshaw/pen/XbxvNj</metadata>
<path stroke="#1e203e" d="M8 1h5M28 1h5M7 2h1M13 2h1M27 2h1M33 2h1M6 3h1M14 3h1M26 3h1M34 3h1M6 4h1M15 4h1M26 4h1M35 4h1M5 5h1M15 5h1M25 5h1M35 5h1M5 6h1M9 6h1M12 6h1M15 6h1M25 6h1M29 6h1M32 6h1M35 6h1M5 7h1M15 7h1M25 7h1M35 7h1M6 8h1M15 8h1M26 8h1M35 8h1M6 9h1M15 9h1M26 9h1M35 9h1M7 10h2M14 10h1M27 10h2M34 10h1M6 11h1M9 11h1M13 11h2M26 11h1M29 11h1M33 11h2M5 12h1M10 12h3M15 12h1M25 12h1M30 12h3M34 12h1M5 13h1M15 13h1M25 13h1M34 13h1M5 14h1M15 14h1M26 14h1M34 14h1M6 15h3M14 15h2M26 15h3M33 15h2M8 16h5M28 16h5M8 17h1M12 17h1M29 17h1M33 17h1" />
<path stroke="#ffffff" d="M8 2h4M28 2h4M7 3h6M27 3h6M7 4h7M27 4h7M6 5h2M26 5h2M6 6h1M26 6h1M6 7h1M11 7h2M26 7h1M31 7h2" />
<path stroke="#cccccc" d="M12 2h1M32 2h1M13 3h1M33 3h1M14 4h1M34 4h1M14 5h1M34 5h1M7 6h2M10 6h2M13 6h2M27 6h2M30 6h2M33 6h2M7 7h4M13 7h2M27 7h4M33 7h2M6 14h1M14 14h1M27 14h1M33 14h1" />
<path stroke="#877076" d="M8 5h1M13 5h1M28 5h1M33 5h1M7 8h2M14 8h1M27 8h2M34 8h1M7 9h1M27 9h1M6 13h1M14 13h1M26 13h1" />
<path stroke="#693f4a" d="M9 5h4M29 5h4M9 8h5M29 8h5M8 9h2M12 9h3M28 9h2M32 9h3M9 10h5M29 10h5M10 11h3M30 11h3M6 12h1M14 12h1M26 12h1" />
<path stroke="#181818" d="M10 9h2M30 9h2M8 18h1M11 18h1M28 18h1M33 18h1" />
<path stroke="#6f271b" d="M7 11h2M27 11h2M9 15h1M12 15h1M29 15h1M32 15h1" />
<path stroke="#f65544" d="M7 12h3M13 12h1M27 12h3M33 12h1M7 13h7M27 13h7M7 14h2M10 14h3M28 14h1M32 14h1" />
<path stroke="#f75643" d="M9 14h1M29 14h3" />
<path stroke="#ffa82e" d="M10 15h1M30 15h1" />
<path stroke="#fc9134" d="M11 15h1M31 15h1" />
</svg>