<svg xmlns="http://www.w3.org/2000/svg" viewBox="0 -0.5 20 20" shape-rendering="crispEdges">
<metadata>Made with Pixels to Svg https://codepen.io/shshaw/pen/XbxvNj</metadata>
<path stroke="#1e203e" d="M7 1h5M6 2h1M12 2h1M5 3h1M13 3h1M5 4h1M14 4h1M4 5h1M14 5h1M4 6h1M8 6h1M11 6h1M14 6h1M4 7h1M14 7h1M5 8h1M14 8h1M5 9h1M14 9h1M2 10h1M6 10h2M13 10h1M17 10h1M2 11h1M4 11h2M8 11h1M12 11h1M14 11h2M17 11h1M2 12h1M17 12h1M3 13h3M14 13h3M6 14h1M13 14h1M7 15h1M12 15h1M7 16h6M8 17h1M12 17h1" />
<path stroke="#ffffff" d="M7 2h5M6 3h7M6 4h2M12 4h2M5 5h2M5 6h1M5 7h1M10 7h2M9 9h2M3 10h1M16 10h1" />
<path stroke="#877076" d="M8 4h1M11 4h1M6 8h2M13 8h1M6 9h1" />
<path stroke="#693f4a" d="M9 4h2M7 5h2M11 5h2M11 8h2M7 9h1M12 9h2M8 10h1M11 10h2M9 11h3" />
<path stroke="#cccccc" d="M9 5h2M13 5h1M6 6h2M9 6h2M12 6h2M6 7h4M12 7h2M3 11h1M16 11h1M3 12h1M16 12h1" />
<path stroke="#181818" d="M8 8h3M2 9h2M8 9h1M11 9h1M16 9h2M9 10h2M8 18h1M12 18h1" />
<path stroke="#6f271b" d="M6 11h2M13 11h1M7 14h1M12 14h1M8 15h4" />
<path stroke="#f65544" d="M4 12h12M6 13h8M8 14h1M11 14h1" />
<path stroke="#ffa82e" d="M9 14h2" />
</svg>