<svg xmlns="http://www.w3.org/2000/svg" viewBox="0 -0.5 20 20" shape-rendering="crispEdges">
<metadata>Made with Pixels to Svg https://codepen.io/shshaw/pen/XbxvNj</metadata>
<path stroke="#1e203e" d="M8 1h5M7 2h1M13 2h1M6 3h1M14 3h1M5 4h1M14 4h1M5 5h1M15 5h1M5 6h1M8 6h1M11 6h1M15 6h1M5 7h1M15 7h1M5 8h1M14 8h1M5 9h1M14 9h1M3 10h1M6 10h1M12 10h2M3 11h1M5 11h3M11 11h1M14 11h1M3 12h1M8 12h3M15 12h1M4 13h2M15 13h1M6 14h1M15 14h1M7 15h1M14 15h2M8 16h5M8 17h1M11 17h1" />
<path stroke="#ffffff" d="M8 2h4M7 3h6M6 4h1M9 4h5M6 5h1M6 6h1M6 7h1M8 7h2M4 10h1" />
<path stroke="#cccccc" d="M12 2h1M13 3h1M7 5h2M13 5h2M7 6h1M9 6h2M12 6h3M7 7h1M10 7h5M4 11h1M4 12h1M14 14h1" />
<path stroke="#877076" d="M7 4h1M9 5h1M12 5h1M6 8h1M12 8h2M13 9h1M14 13h1" />
<path stroke="#693f4a" d="M8 4h1M10 5h2M7 8h4M6 9h3M11 9h2M7 10h5M8 11h3M14 12h1" />
<path stroke="#181818" d="M11 8h1M3 9h2M9 9h2M8 18h1M11 18h1" />
<path stroke="#6f271b" d="M12 11h2M7 14h1M8 15h2M12 15h1" />
<path stroke="#f65544" d="M5 12h3M11 12h3M6 13h8M8 14h1" />
<path stroke="#f75643" d="M9 14h4" />
<path stroke="#ffa82e" d="M10 15h1" />
<path stroke="#fc9134" d="M11 15h1" />
</svg>