<svg xmlns="http://www.w3.org/2000/svg" viewBox="0 -0.5 20 20" shape-rendering="crispEdges">
<metadata>Made with Pixels to Svg https://codepen.io/shshaw/pen/XbxvNj</metadata>
<path stroke="#1e203e" d="M8 4h5M7 5h1M13 5h1M6 6h1M14 6h1M6 7h1M15 7h1M5 8h1M15 8h1M5 9h1M15 9h1M5 10h1M9 10h1M12 10h1M15 10h1M6 11h1M15 11h1M6 12h1M15 12h1M6 13h2M14 13h1M5 14h1M8 14h1M13 14h2M4 15h1M9 15h4M15 15h1M4 16h1M6 16h1M13 16h1M15 16h1M7 17h1M12 17h1M3 18h3M8 18h5M14 18h3M8 19h1M11 19h1" />
<path stroke="#ffffff" d="M8 5h4M7 6h6M7 7h7M6 8h8M6 9h2M6 10h1M11 11h2" />
<path stroke="#cccccc" d="M12 5h1M13 6h1M14 7h1M14 8h1M14 9h1M7 10h2M10 10h2M13 10h2M7 11h4M13 11h2M5 16h1M14 16h1M4 17h1M15 17h1" />
<path stroke="#877076" d="M8 9h1M13 9h1M7 12h2M14 12h1M5 15h1M14 15h1M5 17h1M14 17h1" />
<path stroke="#693f4a" d="M9 9h4M9 12h5M8 13h2M12 13h2M6 14h1M9 14h4" />
<path stroke="#181818" d="M10 13h2" />
<path stroke="#f65544" d="M7 14h1M6 15h3M13 15h1M8 16h4" />
<path stroke="#f75643" d="M7 16h1M12 16h1" />
<path stroke="#6f271b" d="M8 17h2" />
<path stroke="#ffa82e" d="M10 17h1" />
<path stroke="#fc9134" d="M11 17h1" />
</svg>