<svg xmlns="http://www.w3.org/2000/svg" viewBox="0 -0.5 20 20" shape-rendering="crispEdges">
<metadata>Made with Pixels to Svg https://codepen.io/shshaw/pen/XbxvNj</metadata>
<path stroke="#1e203e" d="M8 4h5M7 5h1M13 5h1M6 6h1M14 6h1M5 7h1M15 7h1M5 8h1M15 8h1M5 9h1M15 9h1M5 10h1M15 10h1M6 11h1M9 11h1M12 11h1M14 11h1M6 12h1M14 12h1M5 13h1M7 13h1M13 13h1M15 13h1M4 14h1M8 14h5M16 14h1M4 15h1M16 15h1M4 16h1M7 16h1M13 16h1M16 16h1M4 17h1M8 17h2M12 17h1M16 17h1M4 18h2M8 18h1M15 18h2" />
<path stroke="#ffffff" d="M8 5h1M10 5h3M7 6h4M12 6h2M6 7h9M6 8h9M7 9h7M7 10h1M7 11h2M10 11h2M13 11h1M10 12h2" />
<path stroke="#cccccc" d="M9 5h1M11 6h1M6 9h1M14 9h1M6 10h1M14 10h1M5 16h1M15 16h1M5 17h1M15 17h1" />
<path stroke="#877076" d="M8 10h1M13 10h1" />
<path stroke="#693f4a" d="M9 10h4M7 12h3M12 12h2M8 13h5" />
<path stroke="#f65544" d="M6 13h1M14 13h1M5 14h3M13 14h3M5 15h1M7 15h7M15 15h1" />
<path stroke="#6f271b" d="M6 15h1M14 15h1M8 16h5" />
<path stroke="#ffa82e" d="M10 17h2" />
</svg>