<svg xmlns="http://www.w3.org/2000/svg" viewBox="0 -0.5 20 20" shape-rendering="crispEdges">
<metadata>Made with Pixels to Svg https://codepen.io/shshaw/pen/XbxvNj</metadata>
<path stroke="#1e203e" d="M8 1h5M7 2h1M13 2h1M6 3h1M14 3h1M6 4h1M15 4h1M5 5h1M15 5h1M5 6h1M15 6h1M5 7h1M15 7h1M6 8h1M15 8h2M6 9h1M15 9h2M5 10h1M7 10h1M14 10h2M5 11h1M8 11h5M15 11h1M6 12h1M14 12h1M13 13h1M7 14h1M8 15h5M8 16h1M12 16h1" />
<path stroke="#ffffff" d="M8 2h5M7 3h7M7 4h2M10 4h4M6 5h2M9 5h5M6 6h5M12 6h2M7 7h6M9 8h3" />
<path stroke="#cccccc" d="M9 4h1M8 5h1M14 5h1M11 6h1M14 6h1M6 7h1M13 7h2M7 8h2M12 8h2M7 9h6M8 10h5" />
<path stroke="#877076" d="M14 4h1M14 8h1M13 9h1" />
<path stroke="#693f4a" d="M14 9h1M13 10h1" />
<path stroke="#f65544" d="M6 10h1M6 11h2M13 11h2M7 12h7M8 13h5" />
<path stroke="#6f271b" d="M7 13h1M8 14h5" />
<path stroke="#181818" d="M8 17h1M12 17h1" />
</svg>