<svg xmlns="http://www.w3.org/2000/svg" viewBox="0 -0.5 20 20" shape-rendering="crispEdges">
<metadata>Made with Pixels to Svg https://codepen.io/shshaw/pen/XbxvNj</metadata>
<path stroke="#1e203e" d="M8 1h5M7 2h1M13 2h1M6 3h1M14 3h1M6 4h1M15 4h1M5 5h1M15 5h1M5 6h1M15 6h1M5 7h1M15 7h1M6 8h1M15 8h1M6 9h1M15 9h1M7 10h6M14 10h1M5 11h2M13 11h2M4 12h1M15 12h1M4 13h1M15 13h1M4 14h1M15 14h1M7 15h6M8 16h5M8 17h1M12 17h1" />
<path stroke="#ffffff" d="M8 2h5M7 3h7M7 4h2M10 4h4M6 5h2M9 5h5M6 6h5M12 6h2M7 7h6M9 8h3" />
<path stroke="#cccccc" d="M9 4h1M8 5h1M14 5h1M11 6h1M14 6h1M6 7h1M13 7h2M7 8h2M12 8h2M7 9h6M5 14h1M14 14h1" />
<path stroke="#877076" d="M14 4h1M14 8h1M13 9h1M5 13h1M14 13h1" />
<path stroke="#693f4a" d="M14 9h1M13 10h1M5 12h1M14 12h1" />
<path stroke="#6f271b" d="M7 11h1M12 11h1M7 14h6" />
<path stroke="#f65544" d="M8 11h4M6 12h8M6 13h8" />
<path stroke="#181818" d="M4 15h2M14 15h2M8 18h1M12 18h1" />
</svg>