<svg xmlns="http://www.w3.org/2000/svg" viewBox="0 -0.5 20 20" shape-rendering="crispEdges">
<metadata>Made with Pixels to Svg https://codepen.io/shshaw/pen/XbxvNj</metadata>
<path stroke="#1e203e" d="M8 1h5M7 2h1M13 2h1M6 3h1M14 3h1M6 4h1M15 4h1M5 5h1M15 5h1M5 6h1M9 6h1M12 6h1M15 6h1M5 7h1M15 7h1M6 8h1M15 8h1M6 9h1M15 9h1M7 10h2M14 10h1M5 11h2M9 11h1M13 11h2M4 12h1M15 12h1M4 13h1M15 13h1M4 14h1M15 14h1M7 15h1M12 15h1M7 16h6M8 17h1M12 17h1" />
<path stroke="#ffffff" d="M8 2h5M7 3h7M7 4h8M6 5h2M6 6h1M6 7h1M11 7h2M5 14h1M14 14h1" />
<path stroke="#877076" d="M8 5h1M13 5h1M7 8h2M14 8h1M7 9h1" />
<path stroke="#693f4a" d="M9 5h4M9 8h5M8 9h2M12 9h3M9 10h5M10 11h3" />
<path stroke="#cccccc" d="M14 5h1M7 6h2M10 6h2M13 6h2M7 7h4M13 7h2M5 13h1M14 13h1" />
<path stroke="#181818" d="M10 9h2M4 15h2M14 15h2M8 18h1M12 18h1" />
<path stroke="#6f271b" d="M7 11h2M9 12h4M6 13h1M7 14h1M12 14h2M8 15h4" />
<path stroke="#f65544" d="M5 12h4M13 12h2M7 13h7M8 14h1M11 14h1" />
<path stroke="#ffa82e" d="M9 14h2" />
</svg>