<svg xmlns="http://www.w3.org/2000/svg" viewBox="0 -0.5 20 20" shape-rendering="crispEdges">
<metadata>Made with Pixels to Svg https://codepen.io/shshaw/pen/XbxvNj</metadata>
<path stroke="#1e203e" d="M6 1h6M5 2h1M12 2h1M4 3h1M13 3h1M4 4h1M14 4h1M4 5h1M14 5h1M4 6h1M8 6h1M11 6h1M14 6h1M4 7h1M14 7h1M4 8h1M14 8h1M5 9h1M14 9h1M6 10h2M13 10h1M4 11h2M8 11h1M12 11h2M3 12h1M14 12h1M3 13h1M14 13h1M3 14h1M14 14h1M6 15h1M11 15h1M6 16h6M7 17h1M11 17h1" />
<path stroke="#ffffff" d="M6 2h6M5 3h8M5 4h9M5 5h1M5 6h1M10 7h2" />
<path stroke="#cccccc" d="M6 5h1M13 5h1M6 6h2M9 6h2M12 6h2M5 7h5M12 7h2" />
<path stroke="#877076" d="M7 5h1M12 5h1M5 8h3M13 8h1M6 9h1M4 13h1M13 13h1M4 14h1M13 14h1" />
<path stroke="#693f4a" d="M8 5h4M8 8h5M7 9h3M12 9h2M8 10h5M9 11h3" />
<path stroke="#181818" d="M10 9h2M3 15h2M13 15h2M7 18h1M11 18h1" />
<path stroke="#6f271b" d="M6 11h2M8 12h4M5 13h1M6 14h1M11 14h2M7 15h4" />
<path stroke="#f65544" d="M4 12h4M12 12h2M6 13h7M7 14h1M10 14h1" />
<path stroke="#ffa82e" d="M8 14h2" />
</svg>