<svg xmlns="http://www.w3.org/2000/svg" viewBox="0 -0.5 20 20" shape-rendering="crispEdges">
<metadata>Made with Pixels to Svg https://codepen.io/shshaw/pen/XbxvNj</metadata>
<path stroke="#1e203e" d="M6 0h6M5 1h1M12 1h1M4 2h1M13 2h1M4 3h1M14 3h1M4 4h1M14 4h1M4 5h1M8 5h1M11 5h1M14 5h1M4 6h1M14 6h1M4 7h1M14 7h1M4 8h1M14 8h1M5 9h1M7 9h1M13 9h2M6 10h1M8 10h1M12 10h1M4 11h1M9 11h3M13 11h1M3 12h1M14 12h1M3 13h1M14 13h1M3 14h1M14 14h1M3 15h1M6 15h1M11 15h1M14 15h1M6 16h6M6 17h2M10 17h2" />
<path stroke="#ffffff" d="M6 1h6M5 2h8M5 3h9M10 6h2M7 10h1M8 11h1M4 14h1M13 14h1" />
<path stroke="#cccccc" d="M5 4h2M13 4h1M5 5h3M9 5h2M12 5h2M5 6h5M12 6h2M5 7h2M5 8h2M6 9h1M7 11h1M8 12h2M4 13h1M13 13h1" />
<path stroke="#877076" d="M7 4h1M12 4h1M7 7h1M13 7h1" />
<path stroke="#693f4a" d="M8 4h4M8 7h5M7 8h3M12 8h2M8 9h5M9 10h3" />
<path stroke="#181818" d="M10 8h2M6 18h1M10 18h1M6 19h2M10 19h2" />
<path stroke="#6f271b" d="M5 11h1M12 11h1M5 14h2M11 14h2M7 15h4" />
<path stroke="#f65544" d="M6 11h1M4 12h4M10 12h4M5 13h8M7 14h1M10 14h1" />
<path stroke="#ffa82e" d="M8 14h2M4 15h1M13 15h1" />
</svg>