<svg xmlns="http://www.w3.org/2000/svg" viewBox="0 -0.5 20 20" shape-rendering="crispEdges">
<metadata>Made with Pixels to Svg https://codepen.io/shshaw/pen/XbxvNj</metadata>
<path stroke="#1e203e" d="M11 1h4M10 2h1M15 2h1M9 3h1M16 3h1M8 4h1M17 4h1M8 5h1M17 5h1M8 6h1M16 6h2M8 7h1M18 7h1M8 8h1M17 8h1M9 9h1M17 9h1M10 10h5M16 10h1M9 11h1M8 12h1M14 12h6M8 13h1M14 13h1M8 14h1M9 15h1M9 16h4M9 17h1M11 17h1M9 18h1M11 18h1" />
<path stroke="#cccccc" d="M11 2h1M14 2h1M10 3h1M15 3h1M9 4h1M12 6h2M12 7h1M16 7h2M9 8h1M14 8h1M10 9h3M15 11h4" />
<path stroke="#ffffff" d="M12 2h2M11 3h4M10 4h7M9 5h6M9 6h3M14 6h2M9 7h3M13 7h3M10 8h4" />
<path stroke="#877076" d="M15 5h1M15 8h2M13 9h1" />
<path stroke="#693f4a" d="M16 5h1M14 9h3M15 10h1" />
<path stroke="#181818" d="M19 10h1M19 11h1" />
<path stroke="#f65544" d="M10 11h4M9 12h5M9 13h4M9 14h4" />
<path stroke="#6f271b" d="M14 11h1M13 14h1M10 15h3" />
<path stroke="#9c271b" d="M13 13h1" />
<path stroke="#ffa82e" d="M13 15h1" />
</svg>