<svg xmlns="http://www.w3.org/2000/svg" viewBox="0 -0.5 20 20" shape-rendering="crispEdges">
<metadata>Made with Pixels to Svg https://codepen.io/shshaw/pen/XbxvNj</metadata>
<path stroke="#8b8579" d="M0 0h4M5 0h8M14 0h6M0 4h9M10 4h9M0 8h4M5 8h8M14 8h6M0 12h9M10 12h9M0 16h4M5 16h8M14 16h6" />
<path stroke="#746c61" d="M4 0h1M13 0h1M0 2h4M5 2h8M14 2h6M9 4h1M19 4h1M0 6h9M10 6h9M4 8h1M0 10h4M5 10h8M14 10h6M9 12h1M19 12h1M0 14h9M10 14h9M4 16h1M13 16h1M0 18h4M5 18h8M14 18h6" />
<path stroke="#7c756a" d="M0 1h4M5 1h8M14 1h6M0 5h9M10 5h9M13 8h1M0 9h4M5 9h8M14 9h6M0 13h9M10 13h9M0 17h4M5 17h8M14 17h6" />
<path stroke="#5d5349" d="M4 1h1M13 1h1M4 2h1M13 2h1M4 3h1M13 3h1M9 5h1M19 5h1M9 6h1M19 6h1M0 7h1M9 7h1M19 7h1M4 9h1M13 9h1M4 10h1M13 10h1M4 11h1M13 11h1M9 13h1M19 13h1M9 14h1M19 14h1M0 15h1M9 15h1M19 15h1M4 17h1M13 17h1M4 18h1M13 18h1M4 19h1M13 19h1" />
<path stroke="#53473b" d="M0 3h4M5 3h8M14 3h6M1 7h8M10 7h9M0 11h4M5 11h8M14 11h6M1 15h8M10 15h9M0 19h4M5 19h8M14 19h6" />
</svg>